<svg xmlns="http://www.w3.org/2000/svg" xmlns:xlink="http://www.w3.org/1999/xlink" version="1.1" width="256" height="256" viewBox="0 0 256 256" xml:space="preserve">

<defs>
</defs>
<g style="stroke: none; stroke-width: 0; stroke-dasharray: none; stroke-linecap: butt; stroke-linejoin: miter; stroke-miterlimit: 10; fill: none; fill-rule: nonzero; opacity: 1;" transform="translate(1.4065934065934016 1.4065934065934016) scale(2.81 2.81)" >
	<path d="M 45.237 43.014 c -5.53 -0.659 -7.997 -3.057 -7.997 -7.774 c 0 -4.279 3.481 -7.76 7.76 -7.76 c 4.278 0 7.76 3.481 7.76 7.76 c 0 1.104 0.896 2 2 2 s 2 -0.896 2 -2 c 0 -5.801 -4.227 -10.623 -9.76 -11.577 v -2.607 c 0 -1.104 -0.896 -2 -2 -2 s -2 0.896 -2 2 v 2.607 c -5.533 0.954 -9.76 5.775 -9.76 11.577 c 0 4.732 1.999 10.611 11.523 11.746 c 5.531 0.658 7.997 3.056 7.997 7.773 c 0 4.278 -3.481 7.76 -7.76 7.76 c -4.279 0 -7.76 -3.481 -7.76 -7.76 c 0 -1.104 -0.896 -2 -2 -2 s -2 0.896 -2 2 c 0 5.801 4.227 10.623 9.76 11.577 v 2.607 c 0 1.104 0.896 2 2 2 s 2 -0.896 2 -2 v -2.607 c 5.533 -0.954 9.76 -5.775 9.76 -11.577 C 56.76 50.027 54.761 44.148 45.237 43.014 z" style="stroke: none; stroke-width: 1; stroke-dasharray: none; stroke-linecap: butt; stroke-linejoin: miter; stroke-miterlimit: 10; fill: rgb(0,0,0); fill-rule: nonzero; opacity: 1;" transform=" matrix(1 0 0 1 0 0) " stroke-linecap="round" />
	<path d="M 45 90 C 20.187 90 0 69.813 0 45 C 0 20.187 20.187 0 45 0 c 24.813 0 45 20.187 45 45 C 90 69.813 69.813 90 45 90 z M 45 4 C 22.393 4 4 22.393 4 45 s 18.393 41 41 41 s 41 -18.393 41 -41 S 67.607 4 45 4 z" style="stroke: none; stroke-width: 1; stroke-dasharray: none; stroke-linecap: butt; stroke-linejoin: miter; stroke-miterlimit: 10; fill: rgb(0,0,0); fill-rule: nonzero; opacity: 1;" transform=" matrix(1 0 0 1 0 0) " stroke-linecap="round" />
	<path d="M 45 81.693 c -1.104 0 -2 -0.896 -2 -2 s 0.896 -2 2 -2 c 12.349 0 23.513 -6.837 29.134 -17.843 c 0.502 -0.983 1.704 -1.373 2.691 -0.871 c 0.983 0.503 1.373 1.707 0.871 2.691 C 71.388 74.021 58.859 81.693 45 81.693 z" style="stroke: none; stroke-width: 1; stroke-dasharray: none; stroke-linecap: butt; stroke-linejoin: miter; stroke-miterlimit: 10; fill: rgb(0,0,0); fill-rule: nonzero; opacity: 1;" transform=" matrix(1 0 0 1 0 0) " stroke-linecap="round" />
	<path d="M 79.254 52.556 c -0.106 0 -0.213 -0.008 -0.32 -0.025 c -1.091 -0.176 -1.833 -1.202 -1.657 -2.292 c 0.276 -1.72 0.417 -3.482 0.417 -5.238 c 0 -1.104 0.896 -2 2 -2 s 2 0.896 2 2 c 0 1.968 -0.157 3.944 -0.468 5.873 C 81.067 51.856 80.218 52.556 79.254 52.556 z" style="stroke: none; stroke-width: 1; stroke-dasharray: none; stroke-linecap: butt; stroke-linejoin: miter; stroke-miterlimit: 10; fill: rgb(0,0,0); fill-rule: nonzero; opacity: 1;" transform=" matrix(1 0 0 1 0 0) " stroke-linecap="round" />
	<path d="M 14.083 31.24 c -0.306 0 -0.617 -0.071 -0.908 -0.219 c -0.984 -0.502 -1.374 -1.708 -0.872 -2.691 C 18.613 15.979 31.141 8.307 45 8.307 c 1.104 0 2 0.896 2 2 s -0.896 2 -2 2 c -12.349 0 -23.512 6.837 -29.134 17.843 C 15.512 30.842 14.811 31.24 14.083 31.24 z" style="stroke: none; stroke-width: 1; stroke-dasharray: none; stroke-linecap: butt; stroke-linejoin: miter; stroke-miterlimit: 10; fill: rgb(0,0,0); fill-rule: nonzero; opacity: 1;" transform=" matrix(1 0 0 1 0 0) " stroke-linecap="round" />
	<path d="M 10.307 47 c -1.104 0 -2 -0.896 -2 -2 c 0 -1.969 0.158 -3.946 0.468 -5.874 c 0.176 -1.091 1.203 -1.828 2.293 -1.656 c 1.09 0.176 1.832 1.202 1.656 2.293 c -0.277 1.718 -0.417 3.48 -0.417 5.237 C 12.307 46.104 11.411 47 10.307 47 z" style="stroke: none; stroke-width: 1; stroke-dasharray: none; stroke-linecap: butt; stroke-linejoin: miter; stroke-miterlimit: 10; fill: rgb(0,0,0); fill-rule: nonzero; opacity: 1;" transform=" matrix(1 0 0 1 0 0) " stroke-linecap="round" />
</g>
</svg>